<svg width="680" height="118" viewBox="0 0 680 118" xmlns="http://www.w3.org/2000/svg" role="img" font-family="Segoe UI, system-ui, Arial, sans-serif">
<title>teramind.ia — radiologia</title><desc>teramind.ia: plataforma de radiologia — PACS, laudo, WhatsApp e copiloto por voz</desc>
<defs>
  <linearGradient id="fbg" x1="0" y1="0" x2="1" y2="1"><stop offset="0" stop-color="#0a1422"/><stop offset="1" stop-color="#0f2438"/></linearGradient>
  <linearGradient id="facc" x1="0" y1="0" x2="1" y2="0"><stop offset="0" stop-color="#2bd4c4"/><stop offset="1" stop-color="#3b9cff"/></linearGradient>
  <radialGradient id="fglow" cx="0.13" cy="0.5" r="0.6"><stop offset="0" stop-color="#2bd4c4" stop-opacity="0.18"/><stop offset="1" stop-color="#2bd4c4" stop-opacity="0"/></radialGradient>
</defs>
<rect x="2" y="2" width="676" height="114" rx="14" fill="url(#fbg)"/>
<rect x="2" y="2" width="676" height="114" rx="14" fill="url(#fglow)"/>
<rect x="2" y="2" width="676" height="114" rx="14" fill="none" stroke="url(#facc)" stroke-opacity="0.55" stroke-width="2"/>
<g transform="translate(62,59)">
  <circle r="29" fill="#2bd4c4" fill-opacity="0.07" stroke="url(#facc)" stroke-width="2.5"/>
  <polyline points="-22,1 -11,1 -6,-16 1,15 7,1 22,1" fill="none" stroke="url(#facc)" stroke-width="3" stroke-linecap="round" stroke-linejoin="round"/>
  <circle cx="22" cy="-22" r="10" fill="#2bd4c4"/>
  <g stroke="#0a1422" stroke-width="2.5" stroke-linecap="round"><line x1="22" y1="-26" x2="22" y2="-18"/><line x1="18" y1="-22" x2="26" y2="-22"/></g>
</g>
<text x="120" y="48" font-size="36" font-weight="800" fill="#ffffff" letter-spacing="-1">teramind<tspan fill="#2bd4c4">.ia</tspan></text>
<text x="122" y="74" font-size="14.5" font-weight="600" fill="#aebfd6">Plataforma de radiologia do Brasil</text>
<text x="122" y="98" font-size="14" font-weight="700" fill="#2bd4c4">PACS · Laudo · WhatsApp · Copiloto por voz</text>
</svg>
