<svg width="680" height="118" viewBox="0 0 680 118" xmlns="http://www.w3.org/2000/svg" role="img" font-family="Segoe UI, system-ui, Arial, sans-serif">
<title>UltraSistem</title><desc>UltraSistem — gestão para laboratórios de prótese dentária. Seu laboratório sob controle.</desc>
<defs>
  <linearGradient id="ubg" x1="0" y1="0" x2="1" y2="1"><stop offset="0" stop-color="#0a1733"/><stop offset="1" stop-color="#0e2a55"/></linearGradient>
  <linearGradient id="usilver" x1="0" y1="0" x2="0" y2="1"><stop offset="0" stop-color="#f4f7fc"/><stop offset="0.55" stop-color="#cdd8ea"/><stop offset="1" stop-color="#9fb0cc"/></linearGradient>
  <radialGradient id="uglow" cx="0.13" cy="0.5" r="0.6"><stop offset="0" stop-color="#3b82f6" stop-opacity="0.22"/><stop offset="1" stop-color="#3b82f6" stop-opacity="0"/></radialGradient>
</defs>
<rect x="2" y="2" width="676" height="114" rx="14" fill="url(#ubg)"/>
<rect x="2" y="2" width="676" height="114" rx="14" fill="url(#uglow)"/>
<rect x="2" y="2" width="676" height="114" rx="14" fill="none" stroke="#5b9bff" stroke-opacity="0.5" stroke-width="2"/>
<g transform="translate(64,59)">
  <polygon points="0,-32 28,-16 28,16 0,32 -28,16 -28,-16" fill="#5b9bff" fill-opacity="0.06" stroke="#5b9bff" stroke-opacity="0.7" stroke-width="2.5"/>
  <path d="M -13,-16 L -13,4 Q -13,17 0,17 Q 13,17 13,4 L 13,-16" fill="none" stroke="#3b82f6" stroke-width="9" stroke-linecap="round" stroke-linejoin="round" opacity="0.55"/>
  <path d="M -13,-16 L -13,4 Q -13,17 0,17 Q 13,17 13,4 L 13,-16" fill="none" stroke="url(#usilver)" stroke-width="5" stroke-linecap="round" stroke-linejoin="round"/>
</g>
<text x="120" y="47" font-size="32" font-weight="800" fill="url(#usilver)" letter-spacing="0.5">ULTRASISTEM</text>
<text x="122" y="72" font-size="14" font-weight="600" fill="#b3c2da">Gestão para laboratórios de prótese dentária</text>
<text x="122" y="96" font-size="14" font-weight="700" fill="#5b9bff">Seu laboratório sob controle · ultrasistem.com.br</text>
</svg>
